<svg viewBox="0 0 21 19" fill="none" xmlns="http://www.w3.org/2000/svg">
<path d="M6.54 9.49999H10.14M13.74 14.4091H12.3C12.016 14.4103 11.7346 14.3566 11.472 14.2513C11.2094 14.146 10.9708 13.9911 10.77 13.7955C10.5692 13.5999 10.4101 13.3675 10.302 13.1117C10.1939 12.8559 10.1388 12.5818 10.14 12.3052V6.69481C10.1388 6.4182 10.1939 6.1441 10.302 5.88832C10.4101 5.63254 10.5692 5.40015 10.77 5.20455C10.9708 5.00895 11.2094 4.85403 11.472 4.74871C11.7346 4.64339 12.016 4.58976 12.3 4.59092H13.74M2.22 7.04545H5.82C6.21764 7.04545 6.54 7.35943 6.54 7.74674V11.2532C6.54 11.6406 6.21764 11.9545 5.82 11.9545H2.22C1.82235 11.9545 1.5 11.6406 1.5 11.2532V7.74674C1.5 7.35943 1.82235 7.04545 2.22 7.04545ZM14.46 1.78571H18.78C19.1776 1.78571 19.5 2.09969 19.5 2.487V6.6948C19.5 7.08211 19.1776 7.3961 18.78 7.3961H14.46C14.0624 7.3961 13.74 7.08211 13.74 6.6948V2.487C13.74 2.09969 14.0624 1.78571 14.46 1.78571ZM14.46 11.6039H18.78C19.1776 11.6039 19.5 11.9179 19.5 12.3052V16.513C19.5 16.9003 19.1776 17.2143 18.78 17.2143H14.46C14.0624 17.2143 13.74 16.9003 13.74 16.513V12.3052C13.74 11.9179 14.0624 11.6039 14.46 11.6039Z" stroke="#4D5C6C" stroke-width="2" stroke-linecap="round" stroke-linejoin="round"/>
</svg>
