<svg viewBox="0 0 22 22" fill="none" xmlns="http://www.w3.org/2000/svg">
<path d="M17.3574 9.15625C17.1523 9.56641 16.7012 9.8125 16.25 9.8125H8.375C7.88281 9.8125 7.43164 9.56641 7.22656 9.15625C6.98047 8.74609 6.98047 8.25391 7.22656 7.84375L11.1641 1.28125C11.4102 0.871094 11.8203 0.625 12.3125 0.625C12.7637 0.625 13.1738 0.871094 13.4199 1.28125L17.3574 7.84375C17.6035 8.25391 17.6035 8.74609 17.3574 9.15625ZM12.3125 3.25L9.52344 7.84375H15.0605L12.3125 3.25ZM19.8594 11.7812C20.7617 11.7812 21.5 12.5195 21.5 13.4219V19.3281C21.5 20.2715 20.7617 20.9688 19.8594 20.9688H13.9531C13.0098 20.9688 12.3125 20.2715 12.3125 19.3281V13.4219C12.3125 12.5195 13.0098 11.7812 13.9531 11.7812H19.8594ZM19.5312 13.75H14.2812V19H19.5312V13.75ZM11 16.375C11 19.2871 8.62109 21.625 5.75 21.625C2.83789 21.625 0.5 19.2871 0.5 16.375C0.5 13.5039 2.83789 11.125 5.75 11.125C8.62109 11.125 11 13.5039 11 16.375ZM5.75 13.0938C3.9043 13.0938 2.46875 14.5703 2.46875 16.375C2.46875 18.2207 3.9043 19.6562 5.75 19.6562C7.55469 19.6562 9.03125 18.2207 9.03125 16.375C9.03125 14.5703 7.55469 13.0938 5.75 13.0938Z" fill="#4D5C6C"/>
</svg>
